<svg width="38" height="45" viewBox="0 0 38 45" fill="none" xmlns="http://www.w3.org/2000/svg">
<path d="M38 14.5166L36.6195 10.7641L37.5695 8.6113C37.6883 8.32724 37.6289 8.01329 37.4211 7.78904L34.8234 5.14286C33.6805 3.99169 31.9883 3.58804 30.4594 4.12625L29.732 4.3804L25.7539 0.0448505L19.0297 0H18.9852L12.2164 0.0598007L8.25313 4.42525L7.54063 4.1711C5.99687 3.61794 4.28984 4.02159 3.14688 5.20266L0.504687 7.89369C0.326562 8.07309 0.282031 8.32724 0.371094 8.5515L1.36563 10.794L0 14.5465L0.890625 17.9402L4.92812 33.3837C5.38828 35.1628 6.45703 36.7176 7.95625 37.794C7.95625 37.794 12.8547 41.2774 17.6789 44.4319C18.1094 44.716 18.5547 44.9103 19.0297 44.9103C19.5047 44.9103 19.95 44.716 20.3805 44.4319C25.8133 40.8439 30.1031 37.7791 30.1031 37.7791C31.5875 36.7027 32.6562 35.1478 33.1164 33.3688L37.1242 17.9252L38 14.5166Z" fill="#F15A22"/>
<path style="mix-blend-mode:lighten" opacity="0.15" d="M5.12109 34.0415L0 14.8754L1.49922 11.1229L0.460156 8.34216L2.93906 5.80063C3.75547 5.06807 5.35859 4.81392 6.10078 5.24747L9.975 7.49L15.0219 8.67106L18.9555 7.02654L19.282 41.0681C19.2227 45.9717 19.5344 45.4485 15.957 43.1312L7.125 37.1661C6.175 36.2541 5.44766 35.2226 5.12109 34.0415Z" fill="url(#paint0_linear_9965_596)"/>
<path style="mix-blend-mode:darken" opacity="0.4" d="M30.0141 37.7112L22.5031 42.884C20.4102 44.0351 19.4008 45.1714 19.2375 44.6182C19.1039 44.1846 19.2078 42.9139 19.1633 40.9405L19.0742 7.64644C19.0891 7.31754 19.3117 6.76438 19.6977 6.82418L23.5273 7.9903L29.0492 7.12319L32.7008 4.41721C33.0867 4.1182 33.6508 4.1481 34.007 4.49196L37.2727 7.63149C37.5695 7.94545 37.5844 8.5584 37.4062 8.94711L36.5008 10.6365L38 14.5385L32.8344 33.884C32.0328 36.291 30.9047 36.9189 30.0141 37.7112Z" fill="url(#paint1_linear_9965_596)"/>
<path d="M19.8905 27.6282C19.7124 27.5535 19.5194 27.4937 19.46 27.4937H19.2225H18.985C18.9256 27.4937 18.7327 27.5535 18.5545 27.6282L16.6249 28.4355C16.4467 28.5103 16.1499 28.6448 15.9717 28.7345L13.0624 30.2594C12.8842 30.3491 12.8694 30.5136 13.0327 30.6332L15.6006 32.4571C15.7639 32.5767 16.0163 32.7711 16.1647 32.9056L17.3077 33.8923C17.4561 34.0269 17.6936 34.2362 17.842 34.3707L18.9405 35.3574C19.0889 35.492 19.3264 35.492 19.4749 35.3574L20.603 34.3707C20.7514 34.2362 20.9889 34.0269 21.1374 33.8923L22.2803 32.8907C22.4288 32.7561 22.6811 32.5618 22.8444 32.4422L25.4124 30.6033C25.5756 30.4837 25.5608 30.3192 25.3827 30.2295L22.4733 28.7345C22.2952 28.6448 21.9983 28.5103 21.8202 28.4355L19.8905 27.6282Z" fill="white"/>
<path d="M33.816 15.1829C33.8753 14.9886 33.8753 14.9138 33.8753 14.9138C33.8753 14.7195 33.8605 14.3906 33.8308 14.1962L33.6824 13.7626C33.5933 13.5832 33.4449 13.2992 33.3261 13.1347L31.6488 10.6381C31.5449 10.4736 31.3519 10.2195 31.2183 10.055L29.0511 7.31912C28.9324 7.16962 28.8136 7.03507 28.7988 7.05002H28.7691C28.7691 7.05002 28.6058 7.07992 28.4128 7.10982L25.1027 7.76763C24.9097 7.81248 24.598 7.87228 24.405 7.90218L24.3457 7.91713C24.1527 7.94703 23.841 7.93208 23.648 7.87228L20.8722 6.97527C20.6792 6.91547 20.3675 6.82577 20.1894 6.78092C20.1894 6.78092 19.6253 6.64637 19.1652 6.66132C18.705 6.66132 18.141 6.78092 18.141 6.78092C17.948 6.82577 17.6363 6.91547 17.4581 6.97527L14.6824 7.87228C14.4894 7.93208 14.1777 7.94703 13.9847 7.91713L13.9253 7.90218C13.7324 7.87228 13.4206 7.79753 13.2277 7.76763L9.88784 7.13972C9.69487 7.09487 9.53159 7.07992 9.53159 7.07992H9.5019C9.48705 7.07992 9.3683 7.19952 9.24955 7.34902L7.08237 10.0849C6.96362 10.2344 6.77065 10.5035 6.6519 10.668L4.97455 13.1646C4.87065 13.3291 4.70737 13.6131 4.6183 13.7925L4.46987 14.2261C4.44018 14.4205 4.41049 14.7494 4.42533 14.9437C4.42533 14.9437 4.42533 15.0035 4.48471 15.2128C4.58862 15.5716 4.84096 15.9005 4.84096 15.9005C4.95971 16.05 5.18237 16.3042 5.31596 16.4387L10.2292 21.7012C10.3628 21.8507 10.4074 22.1198 10.3331 22.2992L9.30893 24.7361C9.23471 24.9155 9.21987 25.2145 9.29409 25.4088L9.57612 26.1713C9.81362 26.8141 10.2144 27.3822 10.7488 27.8158L11.7433 28.6231C11.8917 28.7427 12.1589 28.7876 12.3371 28.6979L15.4839 27.1879C15.6621 27.0982 15.9292 26.9188 16.0777 26.7842L18.3339 24.7361C18.6605 24.4371 18.6753 23.9288 18.3785 23.5999L13.6433 20.3856C13.48 20.2809 13.4206 20.0417 13.5097 19.8623L15.5878 15.9155C15.6769 15.7361 15.6917 15.452 15.6175 15.2726L15.3652 14.6896C15.291 14.5102 15.0683 14.3008 14.8902 14.2261L8.7894 11.9238C8.61127 11.849 8.61127 11.7743 8.80424 11.7593L12.7378 11.3856C12.9308 11.3706 13.2425 11.4005 13.4355 11.4454L16.9386 12.4321C17.1316 12.4919 17.2503 12.6862 17.2206 12.8806L16.0035 19.5932C15.9738 19.7876 15.9738 20.0567 16.0183 20.2062C16.0628 20.3557 16.2558 20.4902 16.4488 20.5351L18.8832 21.0583C19.0761 21.1032 19.3878 21.1032 19.5808 21.0583L21.8519 20.5351C22.0449 20.4902 22.2378 20.3407 22.2824 20.2062C22.3269 20.0716 22.3417 19.7876 22.2972 19.5932L21.0949 12.8806C21.0652 12.6862 21.1839 12.4769 21.3769 12.4321L24.88 11.4454C25.073 11.3856 25.3847 11.3706 25.5777 11.3856L29.5113 11.7593C29.7042 11.7743 29.7191 11.849 29.5261 11.9238L23.4253 14.256C23.2472 14.3308 23.0246 14.5251 22.9503 14.7195L22.698 15.3025C22.6238 15.4819 22.6238 15.7809 22.7277 15.9454L24.8207 19.8922C24.9097 20.0716 24.8503 20.2959 24.6871 20.4155L19.9519 23.6447C19.6402 23.9587 19.6699 24.4819 19.9964 24.7809L22.2527 26.8291C22.4011 26.9636 22.6683 27.143 22.8464 27.2178L26.0082 28.7278C26.1863 28.8175 26.4535 28.7726 26.6019 28.653L27.5964 27.8307C28.1308 27.3972 28.5316 26.8291 28.7542 26.1862L29.0363 25.4238C29.1105 25.2444 29.0957 24.9304 29.0214 24.751L27.9972 22.3141C27.923 22.1347 27.9675 21.8656 28.1011 21.7161L33.0144 16.4537C33.148 16.3042 33.3558 16.065 33.4894 15.9155C33.4597 15.8706 33.7269 15.5417 33.816 15.1829Z" fill="white"/>
<defs>
<linearGradient id="paint0_linear_9965_596" x1="0" y1="24.9442" x2="19.3007" y2="24.9442" gradientUnits="userSpaceOnUse">
<stop stop-color="white"/>
<stop offset="0.1413" stop-color="white" stop-opacity="0.9576"/>
<stop offset="1" stop-color="white" stop-opacity="0.7"/>
</linearGradient>
<linearGradient id="paint1_linear_9965_596" x1="19.0668" y1="24.4801" x2="38" y2="24.4801" gradientUnits="userSpaceOnUse">
<stop stop-color="#F1F1F2"/>
<stop offset="0.0919144" stop-color="#E4E5E6"/>
<stop offset="0.2357" stop-color="#D9DADB"/>
<stop offset="0.438" stop-color="#D2D4D5"/>
<stop offset="1" stop-color="#D0D2D3"/>
</linearGradient>
</defs>
</svg>
