<svg width="35" height="35" viewBox="0 0 35 35" fill="none" xmlns="http://www.w3.org/2000/svg">
<g clip-path="url(#clip0_9965_545)">
<path d="M17.4998 34.9999C13.4595 35.0028 9.54275 33.6076 6.41417 31.0512C3.28559 28.4947 1.13796 24.9344 0.335757 20.9746C-0.466448 17.0148 0.126198 12.8995 2.01311 9.32691C3.90003 5.75437 6.96496 2.94477 10.6878 1.37494C14.9644 -0.43171 19.7835 -0.46549 24.085 1.28104C28.3866 3.02756 31.8181 6.41133 33.6248 10.6879C35.4314 14.9646 35.4652 19.7837 33.7187 24.0852C31.9721 28.3868 28.5884 31.8183 24.3118 33.6249C22.1567 34.5369 19.8398 35.0046 17.4998 34.9999ZM17.4998 6.99994C15.0705 6.99989 12.7164 7.84216 10.8385 9.38324C8.96063 10.9243 7.67521 13.0689 7.20128 15.4514C6.72734 17.834 7.09421 20.3072 8.23936 22.4497C9.38452 24.5921 11.2371 26.2711 13.4815 27.2007C15.7258 28.1303 18.2231 28.253 20.5477 27.5477C22.8724 26.8425 24.8806 25.3531 26.2301 23.3331C27.5797 21.3132 28.1871 18.8879 27.9489 16.4703C27.7107 14.0528 26.6416 11.7926 24.9238 10.0749C23.9511 9.097 22.7941 8.32168 21.5197 7.79386C20.2454 7.26604 18.8791 6.99619 17.4998 6.99994Z" fill="#275FF1"/>
<path d="M19 14H16C14.8954 14 14 14.8954 14 16V19C14 20.1046 14.8954 21 16 21H19C20.1046 21 21 20.1046 21 19V16C21 14.8954 20.1046 14 19 14Z" fill="#275FF1"/>
</g>
<defs>
<clipPath id="clip0_9965_545">
<rect width="35" height="35" fill="white"/>
</clipPath>
</defs>
</svg>
