<svg width="40" height="35" viewBox="0 0 40 35" fill="none" xmlns="http://www.w3.org/2000/svg">
<path fill-rule="evenodd" clip-rule="evenodd" d="M11.4622 32.0833L16.6627 33.4376V31.6667L17.0873 31.25H20.059V33.3333V34.7917H16.875L12.948 33.125L11.4622 32.0833Z" fill="#CDBDB2"/>
<path fill-rule="evenodd" clip-rule="evenodd" d="M28.4434 32.0833L23.349 33.4376V31.6667L22.9245 31.25H19.9528V33.3333V34.7917H23.1368L27.0635 33.125L28.4434 32.0833Z" fill="#CDBDB2"/>
<path fill-rule="evenodd" clip-rule="evenodd" d="M17.0874 28.2294L16.6628 31.6668L17.1934 31.2502H22.7123L23.3491 31.6668L22.9245 28.2294L22.0755 27.7085L17.8302 27.8128L17.0874 28.2294Z" fill="#393939"/>
<path fill-rule="evenodd" clip-rule="evenodd" d="M14.2217 5L16.7688 10.8333L17.9364 27.8126H22.0755L23.349 10.8333L25.6839 5H14.2217Z" fill="#F89C35"/>
<path fill-rule="evenodd" clip-rule="evenodd" d="M3.0779 17.8127L0.106201 26.2502L7.53545 25.8335H12.3113V22.1877L12.099 14.6877L11.0377 15.5211L3.0779 17.8127Z" fill="#F89D35"/>
<path fill-rule="evenodd" clip-rule="evenodd" d="M8.70288 18.75L17.4057 18.9583L16.4506 23.3333L12.3114 22.2917L8.70288 18.75Z" fill="#D87C30"/>
<path fill-rule="evenodd" clip-rule="evenodd" d="M8.70288 18.8542L12.3114 22.1876V25.5209L8.70288 18.8542Z" fill="#EA8D3A"/>
<path fill-rule="evenodd" clip-rule="evenodd" d="M12.3113 22.2917L16.5566 23.3334L17.9364 27.8127L16.9811 28.3334L12.3113 25.6251V22.2917Z" fill="#F89D35"/>
<path fill-rule="evenodd" clip-rule="evenodd" d="M12.3112 25.625L11.4622 32.0833L17.0873 28.2293L12.3112 25.625Z" fill="#EB8F35"/>
<path fill-rule="evenodd" clip-rule="evenodd" d="M17.4056 18.9585L17.9363 27.8128L16.3442 23.2815L17.4056 18.9585Z" fill="#EA8E3A"/>
<path fill-rule="evenodd" clip-rule="evenodd" d="M7.4292 25.7293L12.3113 25.625L11.4622 32.0833L7.4292 25.7293Z" fill="#D87C30"/>
<path fill-rule="evenodd" clip-rule="evenodd" d="M2.44111 34.8959L11.4622 32.0833L7.42922 25.7292L0.106201 26.25L2.44111 34.8959Z" fill="#EB8F35"/>
<path fill-rule="evenodd" clip-rule="evenodd" d="M16.7689 10.8335L12.2053 14.5835L8.70288 18.7502L17.4057 19.0628L16.7689 10.8335Z" fill="#E8821E"/>
<path fill-rule="evenodd" clip-rule="evenodd" d="M11.4622 32.0833L17.0873 28.2292L16.6627 31.5626V33.4376L12.842 32.7083L11.4622 32.0833Z" fill="#DFCEC3"/>
<path fill-rule="evenodd" clip-rule="evenodd" d="M28.4434 32.0833L22.9245 28.2292L23.349 31.5626V33.4376L27.1698 32.7083L28.4434 32.0833Z" fill="#DFCEC3"/>
<path fill-rule="evenodd" clip-rule="evenodd" d="M15.0707 20.8335L16.2383 23.2294L12.099 22.1878L15.0707 20.8335Z" fill="#393939"/>
<path fill-rule="evenodd" clip-rule="evenodd" d="M2.33496 0.104248L16.7689 10.8333L14.328 4.99999L2.33496 0.104248Z" fill="#E88F35"/>
<path fill-rule="evenodd" clip-rule="evenodd" d="M2.33494 0.104248L0.424561 5.83341L1.48588 12.0834L0.742957 12.5001L1.80428 13.4376L0.955221 14.1667L2.12267 15.2084L1.37975 15.8334L3.07786 17.9167L11.0378 15.5209C14.9293 12.4654 16.8397 10.9029 16.7689 10.8334C16.6981 10.764 11.8868 7.18758 2.33494 0.104248Z" fill="#8E5A30"/>
<path fill-rule="evenodd" clip-rule="evenodd" d="M36.8276 17.8127L39.7993 26.2502L32.3701 25.8335H27.5942V22.1877L27.8065 14.6877L28.8678 15.5211L36.8276 17.8127Z" fill="#F89D35"/>
<path fill-rule="evenodd" clip-rule="evenodd" d="M31.2026 18.75L22.4998 18.9583L23.4549 23.3333L27.5941 22.2917L31.2026 18.75Z" fill="#D87C30"/>
<path fill-rule="evenodd" clip-rule="evenodd" d="M31.2026 18.8542L27.5941 22.1876V25.5209L31.2026 18.8542Z" fill="#EA8D3A"/>
<path fill-rule="evenodd" clip-rule="evenodd" d="M27.5942 22.2917L23.349 23.3334L21.9691 27.8127L22.9244 28.3334L27.5942 25.6251V22.2917Z" fill="#F89D35"/>
<path fill-rule="evenodd" clip-rule="evenodd" d="M27.5943 25.625L28.4434 32.0833L22.9245 28.3333L27.5943 25.625Z" fill="#EB8F35"/>
<path fill-rule="evenodd" clip-rule="evenodd" d="M22.4997 18.9585L21.969 27.8128L23.561 23.2815L22.4997 18.9585Z" fill="#EA8E3A"/>
<path fill-rule="evenodd" clip-rule="evenodd" d="M32.4761 25.7293L27.594 25.625L28.4431 32.0833L32.4761 25.7293Z" fill="#D87C30"/>
<path fill-rule="evenodd" clip-rule="evenodd" d="M37.4644 34.8959L28.4433 32.0833L32.4763 25.7292L39.7993 26.25L37.4644 34.8959Z" fill="#EB8F35"/>
<path fill-rule="evenodd" clip-rule="evenodd" d="M23.1366 10.8335L27.7002 14.5835L31.2026 18.7502L22.4998 19.0628L23.1366 10.8335Z" fill="#E8821E"/>
<path fill-rule="evenodd" clip-rule="evenodd" d="M24.8345 20.8335L23.667 23.2294L27.8062 22.1878L24.8345 20.8335Z" fill="#393939"/>
<path fill-rule="evenodd" clip-rule="evenodd" d="M37.5708 0.104248L23.1368 10.8333L25.5778 4.99999L37.5708 0.104248Z" fill="#E88F35"/>
<path fill-rule="evenodd" clip-rule="evenodd" d="M37.5706 0.104248L39.481 5.83341L38.4196 12.0834L39.1626 12.5001L38.1012 13.4376L38.9503 14.1667L37.7828 15.2084L38.5258 15.8334L36.8277 17.9167L28.8678 15.5209C24.9762 12.4654 23.0659 10.9029 23.1366 10.8334C23.2074 10.764 28.0187 7.18758 37.5706 0.104248Z" fill="#8E5A30"/>
</svg>
