<svg width="40" height="25" viewBox="0 0 40 25" fill="none" xmlns="http://www.w3.org/2000/svg">
<g clip-path="url(#clip0_9965_543)">
<path d="M8.18902 4.78995C11.3534 1.71822 15.59 0.00012207 20 0.00012207C24.4101 0.00012207 28.6467 1.71822 31.811 4.78995L32.596 5.55895C32.6733 5.63407 32.7347 5.72392 32.7767 5.8232C32.8187 5.92248 32.8403 6.02917 32.8403 6.13695C32.8403 6.24473 32.8187 6.35141 32.7767 6.45069C32.7347 6.54997 32.6733 6.63983 32.596 6.71495L29.911 9.34495C29.8319 9.42186 29.7259 9.46488 29.6155 9.46488C29.5052 9.46488 29.3992 9.42186 29.32 9.34495L28.24 8.28695C26.0324 6.14391 23.0767 4.94525 20 4.94525C16.9233 4.94525 13.9676 6.14391 11.76 8.28695L10.603 9.41995C10.5239 9.49686 10.4179 9.53988 10.3075 9.53988C10.1972 9.53988 10.0912 9.49686 10.012 9.41995L7.32702 6.78995C7.24972 6.71483 7.18828 6.62497 7.14633 6.52569C7.10437 6.42641 7.08276 6.31973 7.08276 6.21195C7.08276 6.10417 7.10437 5.99748 7.14633 5.8982C7.18828 5.79892 7.24972 5.70907 7.32702 5.63395L8.18902 4.78995ZM37.362 10.2279L39.752 12.5679C39.8293 12.6431 39.8908 12.7329 39.9327 12.8322C39.9747 12.9315 39.9963 13.0382 39.9963 13.1459C39.9963 13.2537 39.9747 13.3604 39.9327 13.4597C39.8908 13.559 39.8293 13.6488 39.752 13.7239L28.978 24.2769C28.8198 24.4305 28.608 24.5163 28.3875 24.5163C28.167 24.5163 27.9552 24.4305 27.797 24.2769L20.148 16.7879C20.1283 16.7682 20.1049 16.7526 20.0792 16.7419C20.0535 16.7313 20.0259 16.7258 19.998 16.7258C19.9702 16.7258 19.9426 16.7313 19.9168 16.7419C19.8911 16.7526 19.8677 16.7682 19.848 16.7879L12.199 24.2769C12.0408 24.4305 11.829 24.5163 11.6085 24.5163C11.388 24.5163 11.1762 24.4305 11.018 24.2769L0.244016 13.7239C0.166724 13.6488 0.105283 13.559 0.0633279 13.4597C0.0213728 13.3604 -0.000244141 13.2537 -0.000244141 13.1459C-0.000244141 13.0382 0.0213728 12.9315 0.0633279 12.8322C0.105283 12.7329 0.166724 12.6431 0.244016 12.5679L2.63402 10.2279C2.79225 10.0744 3.00405 9.98856 3.22452 9.98856C3.44498 9.98856 3.65678 10.0744 3.81502 10.2279L11.462 17.7169C11.4817 17.7367 11.5051 17.7523 11.5308 17.763C11.5566 17.7736 11.5842 17.7791 11.612 17.7791C11.6399 17.7791 11.6675 17.7736 11.6932 17.763C11.7189 17.7523 11.7423 17.7367 11.762 17.7169L19.411 10.2279C19.5692 10.0744 19.781 9.98856 20.0015 9.98856C20.222 9.98856 20.4338 10.0744 20.592 10.2279L28.241 17.7169C28.2607 17.7367 28.2841 17.7523 28.3098 17.763C28.3356 17.7736 28.3632 17.7791 28.391 17.7791C28.4189 17.7791 28.4465 17.7736 28.4722 17.763C28.4979 17.7523 28.5213 17.7367 28.541 17.7169L36.19 10.2279C36.3478 10.0771 36.5577 9.9929 36.776 9.9929C36.9943 9.9929 37.2042 10.0771 37.362 10.2279Z" fill="#3B99FC"/>
</g>
<defs>
<clipPath id="clip0_9965_543">
<rect width="40" height="24.516" fill="white"/>
</clipPath>
</defs>
</svg>
